<svg width="272" height="75" viewBox="0 0 272 75" fill="none" xmlns="http://www.w3.org/2000/svg">
<path d="M29.9 20.7V30.9H34.5V16.45H36.5V14.45H43.55V16.45H45.55V58H43.55V60H36.5V58H34.5V40.5H29.9V51.8H27.75V54H25.7V56.1H23.65V58.25H8.45V56.1H6.3V54H4.25V51.8H2.15V20.7H4.25V18.5H6.3V16.4H8.45V14.25H23.65V16.4H25.7V18.5H27.75V20.7H29.9ZM19.45 25.25H17.75V23.6H14.2V25.25H12.6V47.25H14.2V48.9H17.75V47.25H19.45V25.25Z" fill="white"/>
<path d="M78.9 20.7V51.8H76.75V54H74.7V56.1H72.65V58.25H57.45V56.1H55.3V54H53.25V51.8H51.15V20.7H53.25V18.5H55.3V16.4H57.45V14.25H72.65V16.4H74.7V18.5H76.75V20.7H78.9ZM92.6 14.45V16.45H94.55V58H92.6V60H85.45V58H83.5V16.45H85.45V14.45H92.6ZM68.45 25.25H66.75V23.6H63.2V25.25H61.6V47.25H63.2V48.9H66.75V47.25H68.45V25.25Z" fill="white"/>
<path d="M151.05 16.45V18.45H153.05V37.35H151.05V39.35H144V37.35H142V25.75H129.75V23.75H127.75V18.45H129.75V16.45H151.05ZM168.6 16.45V18.45H170.55V38.15H168.6V40.15H161.65V38.15H159.65V18.45H161.65V16.45H168.6ZM131.2 44.4V42.4H167.95V44.4H169.95V60H167.95V62H131.2V60H129.2V44.4H131.2ZM139.7 50.7V53.7H159.45V50.7H139.7Z" fill="#65ABFD"/>
<path d="M213 35.4H183.6V33.85H181.4V32.3H179.45V30.6H177.65V21.25H179.35V19.55H181.15V17.95H183.15V16.45H213.35V17.95H215.45V19.55H217.25V21.25H218.95V30.6H217.15V32.3H215.2V33.85H213V35.4ZM206.75 26.95H208.45V24.9H206.75V23.4H189.85V24.9H188.15V26.95H189.85V28.4H206.75V26.95ZM175.8 39.45H177.5V37.75H219.1V39.45H220.8V44.2H219.1V45.9H213.75V50.2H211.75V51.9H204.8V50.2H202.8V45.9H195.1V50.2H193.1V51.9H188.75V53.6H217.55V55.6H219.55V60H217.55V62H179.85V60H177.85V49.75H179.85V47.9H184.15V45.9H177.5V44.2H175.8V39.45Z" fill="#DBF963"/>
<path d="M248.9 26.45H245.7V28.05H243V29.8H240.15V31.75H237.15V33.55H228.9V31.75H226.45V26.5H228.9V24.7H232.35V23H235.6V21.35H238.5V19.8H241.2V16.45H243.45V15.2H251.15V16.45H253.35V19.8H256.1V21.35H259V23H262.25V24.7H265.7V26.5H268.15V31.75H265.7V33.55H257.45V31.75H254.45V29.8H251.6V28.05H248.9V26.45ZM224.8 38.3H226.5V36.6H241.75V32.1H244.1V30.45H250.5V32.1H252.85V36.6H268.1V38.3H269.8V43.65H268.1V45.35H226.5V43.65H224.8V38.3ZM228.85 62V60H226.85V49.3H228.85V47.3H235.75V49.3H237.75V53.45H266.55V55.45H268.55V60H266.55V62H228.85Z" fill="#FD7D7D"/>
<path d="M110.95 17.25H112.9V44.5H111.05V46.3H103.75V44.5H101.95V17.25H103.9V15.45H110.95V17.25ZM111.05 51.7H112.9V59.2H111.05V61H103.75V59.2H101.95V51.7H103.75V49.9H111.05V51.7Z" fill="white"/>
</svg>
